<svg width="482.248" height="312.644" viewBox="0 0 127.595 82.72" xmlns="http://www.w3.org/2000/svg"><path d="M59.119 0a2.967 2.967 0 012.973 2.974v76.773a2.967 2.967 0 01-2.973 2.973 2.967 2.967 0 01-2.974-2.973V2.974A2.967 2.967 0 0159.119 0zM49.761 17.548a2.967 2.967 0 012.974 2.973V62.2a2.967 2.967 0 01-2.974 2.973 2.967 2.967 0 01-2.974-2.973V20.52a2.967 2.967 0 012.974-2.973zM68.476 11.784a2.967 2.967 0 012.974 2.974v53.205a2.967 2.967 0 01-2.974 2.973 2.967 2.967 0 01-2.974-2.973V14.758a2.967 2.967 0 012.974-2.974zM77.834 32.622a2.967 2.967 0 012.973 2.974v11.528a2.967 2.967 0 01-2.973 2.974 2.967 2.967 0 01-2.974-2.974V35.596a2.967 2.967 0 012.974-2.974zM86.857 4.641h.668a2.634 2.634 0 012.64 2.64V75.44a2.634 2.634 0 01-2.64 2.64h-.668a2.634 2.634 0 01-2.64-2.64V7.281a2.634 2.634 0 012.64-2.64zM40.404 4.641a2.967 2.967 0 012.973 2.974v67.49a2.967 2.967 0 01-2.973 2.974 2.967 2.967 0 01-2.974-2.974V7.615a2.967 2.967 0 012.974-2.974zM31.046 32.622a2.967 2.967 0 012.974 2.974v11.528a2.967 2.967 0 01-2.974 2.974 2.967 2.967 0 01-2.974-2.974V35.596a2.967 2.967 0 012.974-2.974zM12.331 11.784a2.967 2.967 0 012.974 2.974v53.205a2.967 2.967 0 01-2.974 2.973 2.967 2.967 0 01-2.974-2.973V14.758a2.967 2.967 0 012.974-2.974zM21.689 17.548a2.967 2.967 0 012.973 2.973V62.2a2.967 2.967 0 01-2.973 2.973 2.967 2.967 0 01-2.974-2.973V20.52a2.967 2.967 0 012.974-2.973zM96.549 17.548a2.967 2.967 0 012.973 2.973V62.2a2.967 2.967 0 01-2.973 2.973 2.967 2.967 0 01-2.974-2.973V20.52a2.967 2.967 0 012.974-2.973zM105.906 12.835a2.967 2.967 0 012.974 2.973v51.104a2.967 2.967 0 01-2.974 2.974 2.967 2.967 0 01-2.974-2.974V15.808a2.967 2.967 0 012.974-2.973zM115.264 26.183a2.967 2.967 0 012.973 2.974v24.407a2.967 2.967 0 01-2.973 2.973 2.967 2.967 0 01-2.974-2.973V29.157a2.967 2.967 0 012.974-2.974zM2.974 32.622a2.967 2.967 0 012.973 2.974v11.528a2.967 2.967 0 01-2.973 2.974A2.967 2.967 0 010 47.124V35.596a2.967 2.967 0 012.974-2.974zM124.621 32.622a2.967 2.967 0 012.974 2.974v11.528a2.967 2.967 0 01-2.974 2.974 2.967 2.967 0 01-2.974-2.974V35.596a2.967 2.967 0 012.974-2.974z"/></svg>
